<svg width="404" height="504" viewBox="0 0 404 504" fill="none" xmlns="http://www.w3.org/2000/svg">
<path d="M89.3999 144.66C87.1299 141.48 82.7099 140.73 79.6199 143.11C48.0399 167.35 24.3199 200.45 11.5499 238.26C-1.98012 278.31 -2.54009 321.6 9.94991 361.99C22.4299 402.38 47.3299 437.8 81.0999 463.23C114.87 488.66 155.79 502.79 198.06 503.63C240.32 504.47 281.78 491.96 316.53 467.9C351.28 443.83 377.56 409.42 391.64 369.56C405.72 329.7 406.87 286.42 394.94 245.87C383.68 207.58 361.29 173.56 330.7 148.09C327.7 145.59 323.25 146.17 320.86 149.25C318.47 152.34 319.04 156.76 322.04 159.27C350.29 182.91 370.96 214.42 381.39 249.86C392.48 287.56 391.41 327.8 378.32 364.86C365.23 401.92 340.8 433.91 308.49 456.28C276.18 478.66 237.64 490.28 198.35 489.5C159.06 488.72 121.01 475.58 89.6099 451.94C58.2099 428.3 35.0699 395.37 23.4599 357.82C11.8499 320.27 12.3699 280.02 24.9499 242.79C36.7699 207.79 58.6799 177.13 87.8399 154.63C90.9099 152.24 91.6599 147.84 89.3999 144.66Z" fill="#3247D5"/>
<path fill-rule="evenodd" clip-rule="evenodd" d="M172.07 0.380058L172.02 0.310059L67.9502 77.2501L68.0902 77.4401H68.0302V449.97L104.84 471.23V95.7601L136.75 72.1701V449.98L173.56 417.99V44.9501L173.74 44.8201L303.73 126.47V361.65L203.8 362.18V398.28H340.4V364.97H340.55V106.81H340.13L340.56 106.12L172.12 0.310059L172.07 0.380058Z" fill="#3247D5"/>
<path d="M239.75 175.62H204.25V213.31H239.75V175.62Z" fill="#3247D5"/>
<path d="M239.75 230.84H204.25V268.53H239.75V230.84Z" fill="#3247D5"/>
</svg>
